<svg width="636" height="640" viewBox="0 0 636 640" fill="none" xmlns="http://www.w3.org/2000/svg">
<g opacity="0.9">
<path d="M557.551 490.888L67.68 476.852C44.8821 476.192 26.1351 458.764 23.8742 436.06L0.22844 202.429C-2.40933 175.958 18.1276 152.877 44.6937 152.5L589.958 144.964C617.466 144.587 639.039 168.609 635.648 195.929L603.901 451.133C600.98 474.402 580.914 491.642 557.551 490.888Z" fill="#EAF9F3"/>
<mask id="mask0_1124_2584" style="mask-type:alpha" maskUnits="userSpaceOnUse" x="0" y="144" width="636" height="347">
<path d="M557.551 490.888L67.68 476.852C44.8821 476.192 26.1351 458.764 23.8742 436.06L0.22844 202.429C-2.40933 175.958 18.1276 152.877 44.6937 152.5L589.958 144.964C617.466 144.587 639.039 168.609 635.648 195.929L603.901 451.133C600.98 474.402 580.914 491.642 557.551 490.888Z" fill="#EAF9F3"/>
</mask>
<g mask="url(#mask0_1124_2584)">
<path d="M486.991 554.289H878.417C886.236 554.289 892.548 547.977 892.548 540.158V318.209C892.548 310.39 886.236 304.078 878.417 304.078H486.991C479.172 304.078 472.86 310.39 472.86 318.209V540.158C472.86 547.977 479.266 554.289 486.991 554.289Z" stroke="#D2E4D8" stroke-width="1.8" stroke-miterlimit="10" stroke-linecap="round" stroke-linejoin="round"/>
<path d="M-30.2939 539.405H364.524C372.343 539.405 378.654 533.093 378.654 525.274V200.922C378.654 193.103 372.343 186.791 364.524 186.791H-30.2939C-38.113 186.791 -44.4248 193.103 -44.4248 200.922V525.274C-44.4248 533.093 -38.0188 539.405 -30.2939 539.405Z" stroke="#D2E4D8" stroke-width="1.8" stroke-miterlimit="10" stroke-linecap="round" stroke-linejoin="round"/>
<path d="M508.282 303.984H527.406C529.478 303.984 531.174 302.477 531.456 300.404L532.964 286.838C533.246 284.483 531.362 282.316 528.913 282.316H506.774C504.325 282.316 502.535 284.389 502.724 286.838L504.231 300.404C504.514 302.477 506.209 303.984 508.282 303.984Z" stroke="#D2E4D8" stroke-width="1.8" stroke-miterlimit="10" stroke-linecap="round" stroke-linejoin="round"/>
<path d="M520.057 282.411C520.057 282.411 527.594 281.657 529.101 271.483C529.101 271.483 522.318 273.461 520.151 278.265C520.151 278.265 519.209 267.526 514.122 266.49C514.122 266.49 511.861 274.497 515.441 278.454C515.441 278.454 512.709 273.932 505.738 274.026C505.738 274.026 507.528 280.432 514.405 282.316" fill="#D2E4D8"/>
<path d="M50.7231 285.425H69.847C71.9195 285.425 73.6152 283.918 73.8978 281.845L75.4051 268.28C75.6877 265.925 73.8036 263.758 71.3542 263.758H49.2158C46.7665 263.758 44.9766 265.83 45.165 268.28L46.6723 281.845C46.8607 283.824 48.6506 285.425 50.7231 285.425Z" stroke="#D2E4D8" stroke-width="1.8" stroke-miterlimit="10" stroke-linecap="round" stroke-linejoin="round"/>
<path d="M62.4985 263.758C62.4985 263.758 70.035 263.004 71.5423 252.83C71.5423 252.83 64.7594 254.808 62.5927 259.613C62.5927 259.613 61.6507 248.873 56.5635 247.837C56.5635 247.837 54.3026 255.844 57.8824 259.801C57.8824 259.801 55.1504 255.279 48.1792 255.373C48.1792 255.373 49.9691 261.779 56.8462 263.664" fill="#D2E4D8"/>
<path d="M490.006 350.898H574.98C577.147 350.898 578.936 349.108 578.936 346.942V321.035C578.936 318.868 577.147 317.078 574.98 317.078H490.006C487.839 317.078 486.049 318.868 486.049 321.035V346.847C486.049 349.108 487.839 350.898 490.006 350.898Z" stroke="#D2E4D8" stroke-width="1.8" stroke-miterlimit="10" stroke-linecap="round" stroke-linejoin="round"/>
<path d="M522.695 326.31H542.29C543.044 326.31 543.703 325.651 543.703 324.897C543.703 324.144 543.044 323.484 542.29 323.484H522.695C521.942 323.484 521.282 324.144 521.282 324.897C521.282 325.651 521.942 326.31 522.695 326.31Z" fill="#D2E4D8"/>
<path d="M490.006 394.044H574.98C577.147 394.044 578.936 392.255 578.936 390.088V364.275C578.936 362.109 577.147 360.319 574.98 360.319H490.006C487.839 360.319 486.049 362.109 486.049 364.275V390.088C486.049 392.255 487.839 394.044 490.006 394.044Z" stroke="#D2E4D8" stroke-width="1.8" stroke-miterlimit="10" stroke-linecap="round" stroke-linejoin="round"/>
<path d="M522.695 369.457H542.29C543.044 369.457 543.703 368.797 543.703 368.043C543.703 367.29 543.044 366.63 542.29 366.63H522.695C521.942 366.63 521.282 367.29 521.282 368.043C521.282 368.797 521.942 369.457 522.695 369.457Z" fill="#D2E4D8"/>
<path d="M53.6437 424.567H138.618C140.784 424.567 142.574 422.778 142.574 420.611V394.798C142.574 392.632 140.784 390.842 138.618 390.842H53.6437C51.4769 390.842 49.687 392.632 49.687 394.798V420.611C49.687 422.778 51.4769 424.567 53.6437 424.567Z" stroke="#D2E4D8" stroke-width="1.8" stroke-miterlimit="10" stroke-linecap="round" stroke-linejoin="round"/>
<path d="M86.4273 399.886H106.022C106.776 399.886 107.435 399.226 107.435 398.473C107.435 397.719 106.776 397.059 106.022 397.059H86.4273C85.6736 397.059 85.0142 397.719 85.0142 398.473C85.0142 399.32 85.5794 399.886 86.4273 399.886Z" fill="#D2E4D8"/>
<path d="M162.734 424.567H247.708C249.875 424.567 251.664 422.778 251.664 420.611V394.798C251.664 392.632 249.875 390.842 247.708 390.842H162.734C160.567 390.842 158.777 392.632 158.777 394.798V420.611C158.777 422.778 160.567 424.567 162.734 424.567Z" stroke="#D2E4D8" stroke-width="1.8" stroke-miterlimit="10" stroke-linecap="round" stroke-linejoin="round"/>
<path d="M195.518 399.886H215.112C215.866 399.886 216.526 399.226 216.526 398.473C216.526 397.719 215.866 397.059 215.112 397.059H195.518C194.764 397.059 194.104 397.719 194.104 398.473C194.104 399.32 194.67 399.886 195.518 399.886Z" fill="#D2E4D8"/>
<path d="M598.343 350.898H683.317C685.483 350.898 687.273 349.108 687.273 346.942V321.035C687.273 318.868 685.483 317.078 683.317 317.078H598.343C596.176 317.078 594.386 318.868 594.386 321.035V346.847C594.386 349.108 596.176 350.898 598.343 350.898Z" stroke="#D2E4D8" stroke-width="1.8" stroke-miterlimit="10" stroke-linecap="round" stroke-linejoin="round"/>
<path d="M631.032 326.31H650.627C651.381 326.31 652.04 325.651 652.04 324.897C652.04 324.144 651.381 323.484 650.627 323.484H631.032C630.279 323.484 629.619 324.144 629.619 324.897C629.619 325.651 630.279 326.31 631.032 326.31Z" fill="#D2E4D8"/>
<path d="M598.343 394.044H683.317C685.483 394.044 687.273 392.255 687.273 390.088V364.275C687.273 362.109 685.483 360.319 683.317 360.319H598.343C596.176 360.319 594.386 362.109 594.386 364.275V390.088C594.386 392.255 596.176 394.044 598.343 394.044Z" stroke="#D2E4D8" stroke-width="1.8" stroke-miterlimit="10" stroke-linecap="round" stroke-linejoin="round"/>
<path d="M631.032 369.457H650.627C651.381 369.457 652.04 368.797 652.04 368.043C652.04 367.29 651.381 366.63 650.627 366.63H631.032C630.279 366.63 629.619 367.29 629.619 368.043C629.619 368.797 630.279 369.457 631.032 369.457Z" fill="#D2E4D8"/>
<path d="M-70.0488 285.519H358.589C360.944 285.519 362.922 283.541 362.922 281.186V206.104C362.922 203.748 360.944 201.77 358.589 201.77H-70.0488C-72.404 201.77 -74.3823 203.748 -74.3823 206.104V281.186C-74.3823 283.635 -72.404 285.519 -70.0488 285.519Z" stroke="#D2E4D8" stroke-width="1.8" stroke-miterlimit="10" stroke-linecap="round" stroke-linejoin="round"/>
<path d="M-70.0488 378.783H358.589C360.944 378.783 362.922 376.805 362.922 374.45V299.367C362.922 297.012 360.944 295.034 358.589 295.034H-70.0488C-72.404 295.034 -74.3823 297.012 -74.3823 299.367V374.45C-74.3823 376.805 -72.404 378.783 -70.0488 378.783Z" stroke="#D2E4D8" stroke-width="1.8" stroke-miterlimit="10" stroke-linecap="round" stroke-linejoin="round"/>
<path d="M324.798 285.602L334.125 285.602L334.125 238.217L324.798 238.217L324.798 285.602Z" stroke="#D2E4D8" stroke-width="1.8" stroke-miterlimit="10" stroke-linecap="round" stroke-linejoin="round"/>
<path d="M315.055 285.522L324.758 285.522L324.758 251.042L315.055 251.042L315.055 285.522Z" stroke="#D2E4D8" stroke-width="1.8" stroke-miterlimit="10" stroke-linecap="round" stroke-linejoin="round"/>
<path d="M43.7083 378.622L53.0347 378.622L53.0347 331.236L43.7083 331.236L43.7083 378.622Z" stroke="#D2E4D8" stroke-width="1.8" stroke-miterlimit="10" stroke-linecap="round" stroke-linejoin="round"/>
<path d="M33.9648 378.635L43.668 378.635L43.668 344.156L33.9648 344.156L33.9648 378.635Z" stroke="#D2E4D8" stroke-width="1.8" stroke-miterlimit="10" stroke-linecap="round" stroke-linejoin="round"/>
<path d="M62.6302 378.622L71.9565 378.622L71.9565 331.236L62.6302 331.236L62.6302 378.622Z" stroke="#D2E4D8" stroke-width="1.8" stroke-miterlimit="10" stroke-linecap="round" stroke-linejoin="round"/>
<path d="M86.0898 378.235L94.9834 375.427L80.7156 330.24L71.8219 333.048L86.0898 378.235Z" stroke="#D2E4D8" stroke-width="1.8" stroke-miterlimit="10" stroke-linecap="round" stroke-linejoin="round"/>
<path d="M52.9809 378.635L62.6841 378.635L62.6841 344.156L52.9809 344.156L52.9809 378.635Z" stroke="#D2E4D8" stroke-width="1.8" stroke-miterlimit="10" stroke-linecap="round" stroke-linejoin="round"/>
<path d="M250.063 244.351L249.027 230.314C248.933 229.372 249.687 228.619 250.629 228.619H254.679H258.73C259.672 228.619 260.332 229.372 260.332 230.314L259.296 244.351C259.296 244.351 267.774 249.815 267.68 254.337C267.586 257.823 265.513 274.497 264.571 281.845C264.288 283.918 262.593 285.425 260.52 285.425H254.679H248.839C246.766 285.425 245.07 283.918 244.788 281.845C243.846 274.497 241.773 257.823 241.679 254.337C241.585 249.815 250.063 244.351 250.063 244.351Z" fill="#D2E4D8"/>
<path d="M208.424 244.351L207.388 230.314C207.294 229.372 208.047 228.619 208.989 228.619H213.04H217.091C218.033 228.619 218.693 229.372 218.693 230.314L217.656 244.351C217.656 244.351 226.135 249.815 226.041 254.337C225.947 257.823 223.874 274.497 222.932 281.845C222.649 283.918 220.954 285.425 218.881 285.425H213.04H207.2C205.127 285.425 203.431 283.918 203.149 281.845C202.207 274.497 200.134 257.823 200.04 254.337C199.946 249.815 208.424 244.351 208.424 244.351Z" fill="#D2E4D8"/>
<path d="M624.344 467.714H-254.504" stroke="#D2E4D8" stroke-width="1.8" stroke-miterlimit="10" stroke-linecap="round" stroke-linejoin="round"/>
<path d="M234.99 378.783H156.61C154.067 378.783 151.994 376.711 151.994 374.167V361.826C151.994 359.283 154.067 357.21 156.61 357.21H234.99C237.533 357.21 239.606 359.283 239.606 361.826V374.167C239.606 376.711 237.533 378.783 234.99 378.783Z" stroke="#D2E4D8" stroke-width="1.8" stroke-miterlimit="10" stroke-linecap="round" stroke-linejoin="round"/>
<path d="M223.967 337.333H167.444V357.116H223.967V337.333Z" stroke="#D2E4D8" stroke-width="1.8" stroke-miterlimit="10" stroke-linecap="round" stroke-linejoin="round"/>
<path d="M160.85 365.783C161.63 365.783 162.263 365.15 162.263 364.37C162.263 363.589 161.63 362.956 160.85 362.956C160.069 362.956 159.437 363.589 159.437 364.37C159.437 365.15 160.069 365.783 160.85 365.783Z" fill="#D2E4D8"/>
</g>
<path d="M244.787 357.587L284.542 342.797C286.049 342.231 287.086 340.724 287.086 339.123L208.141 333.47L220.294 355.326L240.831 358.058C242.149 358.246 243.563 358.058 244.787 357.587Z" fill="#7693B5"/>
<path d="M144.741 343.173L137.581 287.309C137.393 285.708 138.711 284.389 140.219 284.483L235.744 291.266C237.157 291.36 238.287 292.49 238.381 293.904L244.034 355.42C244.222 357.022 242.809 358.34 241.208 358.152L147.19 345.717C145.871 345.434 144.835 344.398 144.741 343.173Z" fill="#22272E"/>
<path d="M287.086 339.217C287.086 340.912 286.049 342.325 284.542 342.891L244.787 357.681C243.845 358.058 242.715 358.246 241.678 358.152C240.171 357.021 239.229 355.232 239.229 355.232L287.086 339.217Z" fill="#22272E"/>
<path d="M190.378 324.629C192.89 322.774 193.172 318.896 191.008 315.967C188.845 313.037 185.055 312.165 182.544 314.019C180.033 315.874 179.751 319.752 181.915 322.682C184.078 325.611 187.867 326.483 190.378 324.629Z" fill="#7693B5"/>
<path d="M411.532 90.3243H382.705L379.784 92.2085C378.842 92.8679 377.618 92.1143 377.618 90.9838V70.5411C377.618 68.4685 379.313 66.7728 381.386 66.7728H411.626C413.699 66.7728 415.394 68.4685 415.394 70.5411V86.4619C415.3 88.6286 413.604 90.3243 411.532 90.3243Z" fill="#E9BAAA"/>
<path d="M396.082 76.1935H406.162" stroke="#22272E" stroke-width="1.8" stroke-miterlimit="10" stroke-linecap="round" stroke-linejoin="round"/>
<path d="M396.082 81.3748H402.205" stroke="#22272E" stroke-width="1.8" stroke-miterlimit="10" stroke-linecap="round" stroke-linejoin="round"/>
<path d="M390.901 76.1935H385.72V81.3748H390.901V76.1935Z" stroke="#22272E" stroke-width="1.8" stroke-miterlimit="10" stroke-linecap="round" stroke-linejoin="round"/>
<path d="M239.323 242.844L80.1152 266.961C76.5354 267.526 73.3324 264.888 73.0498 261.308L63.535 117.927C63.2524 113.97 66.5496 110.673 70.5062 110.955L229.997 121.13C233.012 121.318 235.461 123.673 235.744 126.688L244.882 235.873C245.164 239.17 242.715 242.279 239.323 242.844Z" fill="#7693B5"/>
<path d="M243.657 242.656L83.6948 266.866C80.1149 267.432 76.912 264.794 76.6293 261.214L67.0203 117.173C66.7377 113.216 70.0349 109.825 74.0858 110.108L234.236 120.282C237.251 120.47 239.7 122.825 239.983 125.934L249.215 235.59C249.592 239.076 247.142 242.184 243.657 242.656Z" fill="#22272E"/>
<path d="M139.371 193.292L94.3402 195.741C92.9271 195.835 91.7024 194.705 91.6082 193.292L88.9704 155.232C88.8762 153.725 90.1009 152.406 91.6082 152.406L136.639 152.689C138.052 152.689 139.182 153.725 139.276 155.138L141.914 190.465C142.008 191.973 140.878 193.197 139.371 193.292Z" fill="#659192"/>
<path d="M187.792 178.595L150.11 179.914C148.697 180.009 147.472 178.878 147.378 177.465L145.777 155.515C145.682 154.008 146.907 152.689 148.414 152.689L186.097 152.971C187.416 152.971 188.546 154.008 188.735 155.421L190.336 175.769C190.43 177.277 189.3 178.595 187.792 178.595Z" fill="#EECA80"/>
<path d="M230.468 177.182L198.72 178.313C197.307 178.407 196.083 177.277 195.988 175.863L194.387 155.986C194.293 154.479 195.517 153.16 197.025 153.16L228.772 153.348C230.091 153.348 231.222 154.384 231.41 155.798L232.917 174.356C233.106 175.769 231.975 177.088 230.468 177.182Z" fill="#E9BAAA"/>
<path d="M142.197 230.22L97.1665 235.119C95.6592 235.307 94.3403 234.177 94.2461 232.67L92.5504 208.082C92.4562 206.669 93.5867 205.35 94.9997 205.256L140.124 202.241C141.538 202.147 142.856 203.183 142.951 204.691L144.646 227.394C144.646 228.807 143.61 230.032 142.197 230.22Z" stroke="#7693B5" stroke-width="1.8" stroke-miterlimit="10" stroke-linecap="round" stroke-linejoin="round"/>
<path d="M192.032 229.278L154.444 233.706C152.937 233.894 151.618 232.764 151.523 231.257L148.509 190.654C148.415 189.146 149.545 187.922 150.958 187.828L188.641 186.038C190.054 185.943 191.278 187.074 191.373 188.487L194.387 226.452C194.481 227.865 193.445 229.09 192.032 229.278Z" fill="#E9BAAA"/>
<path d="M184.213 193.103L157.176 194.705C156.516 194.705 156.045 195.27 156.139 195.929L157.364 212.698C157.458 213.357 157.929 213.828 158.589 213.734L185.626 211.379C186.285 211.285 186.756 210.814 186.662 210.154L185.437 194.139C185.343 193.574 184.778 193.103 184.213 193.103Z" fill="#659192"/>
<path d="M234.236 219.952L202.489 223.437C200.982 223.626 199.663 222.495 199.569 220.988L197.025 188.299C196.931 186.791 198.061 185.567 199.474 185.472L231.222 183.965C232.635 183.871 233.86 185.001 233.954 186.414L236.497 217.126C236.686 218.539 235.649 219.763 234.236 219.952Z" fill="#EECA80"/>
<path d="M119.211 214.676L119.776 221.648" stroke="#7693B5" stroke-width="1.8" stroke-miterlimit="10" stroke-linecap="round" stroke-linejoin="round"/>
<path d="M116.196 218.444L122.791 217.879" stroke="#7693B5" stroke-width="1.8" stroke-miterlimit="10" stroke-linecap="round" stroke-linejoin="round"/>
<path d="M164.336 222.401C164.147 220.517 162.734 219.01 161.038 219.198C159.343 219.387 158.024 221.082 158.212 223.061C158.401 225.039 159.908 226.452 161.604 226.264C163.205 225.981 164.43 224.285 164.336 222.401Z" fill="#22272E"/>
<path d="M169.8 221.836L187.416 220.046" stroke="#22272E" stroke-width="1.8" stroke-miterlimit="10" stroke-linecap="round" stroke-linejoin="round"/>
<path d="M208.989 194.328C208.801 192.538 207.576 191.219 206.069 191.219C204.561 191.313 203.525 192.821 203.619 194.61C203.808 196.4 205.032 197.813 206.54 197.719C208.141 197.625 209.177 196.118 208.989 194.328Z" fill="#659192"/>
<path d="M213.793 194.045L228.961 193.103" stroke="#22272E" stroke-width="1.8" stroke-miterlimit="10" stroke-linecap="round" stroke-linejoin="round"/>
<path d="M209.837 204.408C209.648 202.618 208.424 201.299 206.916 201.393C205.409 201.487 204.373 203.089 204.467 204.879C204.655 206.669 205.974 208.082 207.387 207.893C208.895 207.705 210.025 206.198 209.837 204.408Z" fill="#659192"/>
<path d="M214.547 204.031L229.808 202.806" stroke="#22272E" stroke-width="1.8" stroke-miterlimit="10" stroke-linecap="round" stroke-linejoin="round"/>
<path d="M210.685 214.488C210.496 212.698 209.272 211.379 207.764 211.473C206.257 211.568 205.221 213.169 205.315 214.959C205.503 216.749 206.822 218.068 208.235 217.974C209.743 217.785 210.779 216.278 210.685 214.488Z" fill="#659192"/>
<path d="M215.395 214.017L230.562 212.51" stroke="#22272E" stroke-width="1.8" stroke-miterlimit="10" stroke-linecap="round" stroke-linejoin="round"/>
<path d="M104.703 167.668L98.5795 167.762C98.0143 167.762 97.5433 167.291 97.4491 166.726L96.978 160.32C96.978 159.66 97.4491 159.189 98.1085 159.189H104.232C104.797 159.189 105.268 159.66 105.362 160.225L105.833 166.537C105.739 167.103 105.268 167.668 104.703 167.668Z" fill="#EECA80"/>
<path d="M111.297 159.189L132.494 159.095" stroke="#22272E" stroke-width="1.8" stroke-miterlimit="10" stroke-linecap="round" stroke-linejoin="round"/>
<path d="M111.674 164.653L132.871 164.465" stroke="#22272E" stroke-width="1.8" stroke-miterlimit="10" stroke-linecap="round" stroke-linejoin="round"/>
<path d="M206.351 166.16L201.546 166.254C201.264 166.254 200.981 165.972 200.887 165.689L200.416 159.566C200.416 159.189 200.699 158.906 201.075 158.906H205.88C206.163 158.906 206.445 159.189 206.539 159.472L207.01 165.501C207.01 165.783 206.728 166.16 206.351 166.16Z" fill="#22272E"/>
<path d="M210.873 158.812H226.605" stroke="#22272E" stroke-width="1.8" stroke-miterlimit="10" stroke-linecap="round" stroke-linejoin="round"/>
<path d="M211.344 163.617L226.982 163.428" stroke="#22272E" stroke-width="1.8" stroke-miterlimit="10" stroke-linecap="round" stroke-linejoin="round"/>
<path d="M201.358 171.436L227.547 170.776" stroke="#22272E" stroke-width="1.8" stroke-miterlimit="10" stroke-linecap="round" stroke-linejoin="round"/>
<path d="M105.739 182.269L99.6157 182.458C99.0504 182.458 98.4852 181.987 98.4852 181.421L98.0142 175.015C98.0142 174.356 98.4852 173.885 99.0504 173.885L105.174 173.697C105.739 173.697 106.21 174.168 106.304 174.733L106.775 181.045C106.775 181.704 106.304 182.269 105.739 182.269Z" fill="#EECA80"/>
<path d="M112.333 173.602L133.53 173.037" stroke="#22272E" stroke-width="1.8" stroke-miterlimit="10" stroke-linecap="round" stroke-linejoin="round"/>
<path d="M112.71 179.161L133.907 178.501" stroke="#22272E" stroke-width="1.8" stroke-miterlimit="10" stroke-linecap="round" stroke-linejoin="round"/>
<path d="M121.189 136.674L89.4417 135.732C88.4054 135.732 87.5576 134.884 87.4633 133.848L87.0865 128.855C86.9923 127.63 88.0286 126.594 89.1591 126.688L120.906 128.007C121.943 128.007 122.791 128.855 122.885 129.891L123.262 134.507C123.356 135.637 122.414 136.674 121.189 136.674Z" fill="#659192"/>
<path d="M153.313 159L183.27 158.906" stroke="#22272E" stroke-width="1.8" stroke-miterlimit="10" stroke-linecap="round" stroke-linejoin="round"/>
<path d="M153.69 164.276L183.647 163.899" stroke="#22272E" stroke-width="1.8" stroke-miterlimit="10" stroke-linecap="round" stroke-linejoin="round"/>
<path d="M154.255 172.566L170.365 172.189" stroke="#22272E" stroke-width="1.8" stroke-miterlimit="10" stroke-linecap="round" stroke-linejoin="round"/>
<path d="M229.526 136.203C229.432 134.79 228.396 133.565 227.171 133.471C226.04 133.376 225.098 134.601 225.287 136.014C225.381 137.522 226.417 138.746 227.642 138.746C228.772 138.84 229.62 137.616 229.526 136.203Z" fill="#7693B5"/>
<path d="M221.142 135.92C221.048 134.413 219.917 133.188 218.787 133.188C217.562 133.094 216.714 134.319 216.808 135.826C216.903 137.333 218.033 138.558 219.258 138.558C220.388 138.558 221.236 137.333 221.142 135.92Z" fill="#7693B5"/>
<path d="M212.475 135.543C212.38 134.036 211.25 132.811 210.025 132.717C208.801 132.623 207.859 133.848 207.953 135.355C208.047 136.862 209.177 138.087 210.402 138.181C211.721 138.275 212.569 137.051 212.475 135.543Z" fill="#7693B5"/>
<path d="M267.774 148.544L225.946 147.79C224.251 147.79 222.837 146.471 222.743 144.775L218.975 98.7087C218.881 97.1072 220.2 95.8826 221.707 95.9768L263.723 100.404C265.324 100.593 266.549 101.818 266.643 103.419L270.317 145.718C270.411 147.319 269.281 148.544 267.774 148.544Z" fill="#D95C26"/>
<path d="M270.034 147.79L228.207 147.036C226.511 147.036 225.098 145.717 225.004 144.022L221.236 97.955C221.142 96.3535 222.46 95.1288 223.968 95.223L265.984 99.6507C267.585 99.8391 268.81 101.064 268.904 102.665L272.578 144.964C272.672 146.565 271.448 147.79 270.034 147.79Z" fill="#EECA80"/>
<path d="M239.512 103.796L261.65 105.868" stroke="#7693B5" stroke-width="1.8" stroke-miterlimit="10" stroke-linecap="round" stroke-linejoin="round"/>
<path d="M239.888 108.318L262.027 110.202" stroke="#7693B5" stroke-width="1.8" stroke-miterlimit="10" stroke-linecap="round" stroke-linejoin="round"/>
<path d="M240.736 118.681L262.969 120.188" stroke="#7693B5" stroke-width="1.8" stroke-miterlimit="10" stroke-linecap="round" stroke-linejoin="round"/>
<path d="M241.113 123.108L263.252 124.427" stroke="#7693B5" stroke-width="1.8" stroke-miterlimit="10" stroke-linecap="round" stroke-linejoin="round"/>
<path d="M242.055 133.565L264.194 134.507" stroke="#7693B5" stroke-width="1.8" stroke-miterlimit="10" stroke-linecap="round" stroke-linejoin="round"/>
<path d="M242.432 137.993L264.571 138.746" stroke="#7693B5" stroke-width="1.8" stroke-miterlimit="10" stroke-linecap="round" stroke-linejoin="round"/>
<path d="M231.881 106.339L233.012 107.752L234.613 105.586" stroke="#659192" stroke-width="1.8" stroke-miterlimit="10" stroke-linecap="round" stroke-linejoin="round"/>
<path d="M233.106 121.412L234.236 122.731L235.932 120.565" stroke="#659192" stroke-width="1.8" stroke-miterlimit="10" stroke-linecap="round" stroke-linejoin="round"/>
<path d="M234.331 136.203L235.555 137.521L237.157 135.26" stroke="#659192" stroke-width="1.8" stroke-miterlimit="10" stroke-linecap="round" stroke-linejoin="round"/>
<path d="M287.651 214.771C287.651 214.771 281.811 226.923 281.34 234.648C280.869 242.373 289.064 273.367 302.442 297.012C302.442 297.012 315.065 292.867 315.065 289.005C315.065 285.142 307.623 239.453 308.094 238.134C308.565 236.815 313.746 227.112 313.746 222.967C313.746 218.916 289.63 210.249 287.651 214.771Z" fill="#E9BAAA"/>
<path d="M313.746 222.966C313.746 218.821 289.724 210.249 287.745 214.771C287.745 214.771 286.992 216.466 285.956 218.916C293.586 224.851 301.782 229.938 311.109 231.633C312.427 228.619 313.746 225.039 313.746 222.966Z" fill="#E26E85"/>
<path d="M312.71 163.146C312.71 163.146 303.289 166.349 296.13 182.552C288.876 198.85 281.339 212.321 281.339 212.321C281.339 212.321 293.115 224.003 308.188 229.938C323.261 236.061 323.826 164.653 312.71 163.146Z" fill="#659192"/>
<path d="M283.977 207.517C283.977 207.517 300.086 220.706 315.065 226.452" stroke="#22272E" stroke-width="1.8" stroke-miterlimit="10" stroke-linecap="round" stroke-linejoin="round"/>
<path d="M344.175 514.534C344.175 514.534 343.327 534.317 343.516 536.201C343.704 538.18 336.921 542.136 328.537 541.854C320.247 541.571 319.399 539.122 319.399 539.122C319.399 539.122 317.515 517.737 317.326 514.722C317.138 511.708 342.479 510.483 344.175 514.534Z" fill="#E9BAAA"/>
<path d="M343.704 525.933C343.892 520.281 344.175 514.534 344.175 514.534C342.479 510.483 317.138 511.708 317.326 514.722C317.42 516.136 317.891 521.411 318.268 526.687C325.711 530.361 335.508 529.419 343.704 525.933Z" fill="#22272E"/>
<path d="M343.515 535.636C343.515 535.636 344.269 541.194 344.552 547.223C344.834 553.347 345.776 564.275 344.74 566.159C343.61 568.043 337.957 569.644 324.486 570.681C311.014 571.717 298.579 570.775 296.413 569.079C294.246 567.384 294.905 564.84 296.978 562.862C299.05 560.883 307.246 552.122 310.638 548.542C315.065 543.832 318.268 539.028 318.268 538.462C318.551 536.201 319.022 536.201 319.022 536.201C319.022 536.201 319.587 537.614 320.341 537.52C321.094 537.426 322.131 533.187 326.653 534.223C331.269 535.259 333.059 538.368 334.754 538.368C336.45 538.274 341.066 537.709 343.515 535.636Z" fill="#22272E"/>
<path d="M379.502 518.491C379.502 518.491 382.046 538.839 382.517 540.064C382.988 541.288 387.698 544.68 395.046 544.303C402.394 543.926 405.22 541.759 405.503 541.288C405.785 540.817 405.314 517.549 405.126 516.041C404.938 514.534 381.198 514.911 379.502 518.491Z" fill="#E9BAAA"/>
<path d="M405.409 526.498C405.315 521.317 405.126 516.512 405.032 515.853C404.75 514.346 381.198 514.817 379.408 518.396C379.408 518.396 379.973 522.918 380.633 527.817C389.111 529.795 397.59 529.23 405.409 526.498Z" fill="#22272E"/>
<path d="M382.14 538.274C381.951 539.781 381.857 541.194 381.952 542.702C382.046 543.926 382.14 545.622 382.14 547.694C382.234 552.028 382.611 567.007 383.647 569.173C384.683 571.34 396.553 573.13 405.503 573.224C414.453 573.319 421.047 570.963 422.083 568.514C423.12 566.065 422.554 562.485 419.445 558.528C416.337 554.571 409.177 548.448 408.329 545.528C407.481 542.607 406.162 539.216 405.597 538.274C405.597 538.274 404.373 539.97 403.054 540.346C401.829 540.723 400.039 535.636 396.177 535.448C392.314 535.165 390.618 536.767 388.169 540.346C388.075 540.346 384.683 540.629 382.14 538.274Z" fill="#22272E"/>
<path d="M299.521 272.801C299.521 272.801 297.26 283.07 296.13 296.918C294.999 310.766 298.956 396.588 299.521 403.277C300.086 409.965 302.253 448.119 304.703 466.677C306.681 481.939 305.268 512.744 309.884 517.078C314.5 521.411 328.631 523.766 337.392 521.411C346.153 519.056 350.204 514.722 351.24 511.143C352.277 507.563 348.132 480.337 348.414 466.489C348.697 452.641 348.414 411.755 347.943 402.052C347.943 402.052 351.806 352.5 356.422 341.195C361.038 329.89 367.726 288.251 354.914 276.193C341.914 264.134 300.652 270.823 299.521 272.801Z" fill="#22272E"/>
<path d="M320.153 278.265C320.153 278.265 320.058 296.918 320.812 310.861C321.095 316.136 321.566 320.752 322.225 323.484C324.58 333.282 329.668 334.035 333.53 336.296C337.392 338.651 351.241 394.044 356.893 408.458C356.893 408.458 361.227 441.618 364.618 461.402C367.915 481.185 367.444 505.113 369.988 513.309C372.531 521.505 387.416 523.107 394.67 522.447C401.924 521.788 411.627 518.962 411.344 510.483C411.061 502.005 409.648 477.888 408.424 457.351C407.105 436.814 404.844 406.197 404.279 399.037C404.279 399.037 401.452 365.123 399.945 347.695C398.438 330.267 399.286 312.462 397.025 282.41C394.575 252.264 320.058 261.497 320.153 278.265Z" fill="#22272E"/>
<path d="M320.812 310.86C321.094 316.136 321.565 320.752 322.225 323.484C324.58 333.281 329.667 334.035 333.529 336.296C337.392 338.651 351.24 394.044 356.892 408.458" stroke="#7693B5" stroke-width="1.8" stroke-miterlimit="10" stroke-linecap="round" stroke-linejoin="round"/>
<path d="M333.53 336.296C333.53 336.296 322.508 330.644 317.609 332.716" stroke="#7693B5" stroke-width="1.8" stroke-miterlimit="10" stroke-linecap="round" stroke-linejoin="round"/>
<path d="M316.667 417.031C323.534 417.031 329.102 410.915 329.102 403.371C329.102 395.827 323.534 389.711 316.667 389.711C309.799 389.711 304.231 395.827 304.231 403.371C304.231 410.915 309.799 417.031 316.667 417.031Z" stroke="#7693B5" stroke-width="1.8" stroke-miterlimit="10" stroke-linecap="round" stroke-linejoin="round"/>
<path d="M381.669 416.183C388.745 416.183 394.481 410.067 394.481 402.523C394.481 394.979 388.745 388.863 381.669 388.863C374.593 388.863 368.857 394.979 368.857 402.523C368.857 410.067 374.593 416.183 381.669 416.183Z" stroke="#7693B5" stroke-width="1.8" stroke-miterlimit="10" stroke-linecap="round" stroke-linejoin="round"/>
<path d="M322.131 528.1C322.131 528.1 321.848 526.121 322.131 525.273" stroke="#7693B5" stroke-width="1.8" stroke-miterlimit="10" stroke-linecap="round" stroke-linejoin="round"/>
<path d="M329.95 529.324C329.95 529.324 329.95 525.65 329.95 525.273" stroke="#7693B5" stroke-width="1.8" stroke-miterlimit="10" stroke-linecap="round" stroke-linejoin="round"/>
<path d="M339.465 527.44C339.465 527.44 339.559 525.085 339.465 524.049" stroke="#7693B5" stroke-width="1.8" stroke-miterlimit="10" stroke-linecap="round" stroke-linejoin="round"/>
<path d="M384.683 528.665C384.683 528.665 384.212 526.121 384.212 525.368" stroke="#7693B5" stroke-width="1.8" stroke-miterlimit="10" stroke-linecap="round" stroke-linejoin="round"/>
<path d="M394.104 529.042C394.104 529.042 394.292 525.839 394.104 524.991" stroke="#7693B5" stroke-width="1.8" stroke-miterlimit="10" stroke-linecap="round" stroke-linejoin="round"/>
<path d="M402.206 527.534C402.206 527.534 402.394 525.368 402.206 524.331" stroke="#7693B5" stroke-width="1.8" stroke-miterlimit="10" stroke-linecap="round" stroke-linejoin="round"/>
<path d="M313.275 547.129C313.275 547.129 320.435 541.383 334.472 549.296" stroke="white" stroke-width="1.8" stroke-miterlimit="10" stroke-linecap="round" stroke-linejoin="round"/>
<path d="M307.906 554.383C307.906 554.383 316.761 547.318 329.95 555.89" stroke="white" stroke-width="1.8" stroke-miterlimit="10" stroke-linecap="round" stroke-linejoin="round"/>
<path d="M410.496 551.274C410.496 551.274 401.923 547.506 390.336 553.63" stroke="white" stroke-width="1.8" stroke-miterlimit="10" stroke-linecap="round" stroke-linejoin="round"/>
<path d="M414.358 557.68C414.358 557.68 404.467 553.347 392.502 561.166" stroke="white" stroke-width="1.8" stroke-miterlimit="10" stroke-linecap="round" stroke-linejoin="round"/>
<path d="M358.306 159.849C358.306 159.849 363.016 161.262 373.002 161.45C382.988 161.638 394.386 164.559 398.814 170.117C403.242 175.675 404.655 216.655 403.995 235.213C403.336 253.678 390.053 281.374 390.053 281.374C390.053 281.374 358.306 284.954 332.305 283.729C306.304 282.411 300.086 276.758 298.296 274.968C296.506 273.178 295.47 268.845 296.506 266.961C297.543 265.171 302.63 250.475 304.514 236.438C306.304 222.307 302.441 202.806 304.231 185.567C306.021 168.327 312.71 163.24 312.71 163.24C312.71 163.24 321.094 160.414 335.602 159.943C350.015 159.283 358.306 159.849 358.306 159.849Z" fill="#EECA80"/>
<path d="M356.893 209.495C360.275 209.495 363.016 206.753 363.016 203.372C363.016 199.99 360.275 197.248 356.893 197.248C353.511 197.248 350.77 199.99 350.77 203.372C350.77 206.753 353.511 209.495 356.893 209.495Z" fill="#CB7D56"/>
<path d="M336.356 156.269C333.812 156.363 331.834 157.87 330.044 159.66C328.914 160.79 327.877 162.298 327.406 164.276C323.826 181.61 329.29 202.524 336.262 202.335C345.023 202.053 356.799 186.132 366.031 168.044C369.799 160.602 362.545 155.421 358.306 155.421C355.009 155.327 341.631 155.986 336.356 156.269Z" fill="#659192"/>
<path d="M376.582 119.622C376.582 119.622 376.582 127.253 372.154 134.79C367.727 142.326 362.357 146.283 360.567 149.674C358.777 153.066 359.248 144.21 360.567 139.971C361.886 135.826 369.705 113.122 376.582 119.622Z" fill="#22272E"/>
<path d="M334.378 148.261C334.378 148.261 333.341 157.399 332.682 160.885C332.022 164.37 330.515 173.508 342.197 174.074C352.654 174.639 358.306 166.537 360.378 162.58C361.038 161.356 361.32 160.037 361.226 158.718C360.944 154.573 360.378 144.399 360.661 136.109C361.038 125.557 334.378 140.819 334.378 148.261Z" fill="#E9BAAA"/>
<path d="M355.103 148.92C349.544 153.348 341.348 155.421 333.624 154.29C333.341 156.74 332.964 159.377 332.682 160.885C332.587 161.356 332.493 161.921 332.399 162.58C341.914 163.051 352.747 158.341 355.103 148.92Z" fill="#F7A98E"/>
<path d="M323.261 114.347C323.261 114.347 320.718 118.021 321.095 120.847C321.472 123.674 326.841 133.188 329.573 132.906C332.305 132.623 335.131 120.942 331.928 117.079C328.631 113.217 324.298 112.557 323.261 114.347Z" fill="#22272E"/>
<path d="M325.428 119.717C325.428 119.717 325.711 126.311 324.486 133.848C323.262 141.384 322.414 152.689 333.624 155.798C344.835 158.907 358.024 154.667 362.169 139.217C366.314 123.768 369.328 108.129 355.009 103.608C340.69 99.0857 323.733 104.926 325.428 119.717Z" fill="#E9BAAA"/>
<path d="M330.233 127.253C330.515 128.289 330.421 129.514 330.044 130.645C329.856 131.21 329.573 131.681 329.196 132.152C329.008 132.435 328.82 132.623 328.631 132.811C328.537 132.906 328.443 133.094 328.349 133.188C328.254 133.471 328.254 133.753 328.349 134.036C328.443 134.413 328.725 134.79 329.008 135.166C329.573 135.92 330.421 136.58 331.269 137.145C330.138 137.239 329.008 136.862 328.066 136.109C327.595 135.732 327.124 135.261 326.841 134.601C326.559 133.942 326.464 133.094 326.841 132.435C327.03 132.058 327.218 131.775 327.501 131.587C327.689 131.398 327.878 131.304 327.972 131.116C328.254 130.739 328.631 130.362 328.82 129.985C329.385 129.137 329.856 128.289 330.233 127.253Z" fill="#22272E"/>
<path d="M361.603 131.587C361.603 131.587 360.19 129.42 359.531 125.086C358.965 120.753 354.349 121.036 352.183 113.028C350.016 105.021 344.74 114.912 336.356 118.492C327.972 122.072 321.377 116.325 317.986 109.919C314.689 103.607 320.341 97.8609 324.203 95.2231C328.066 92.5853 332.117 96.8246 339.653 94.9405C347.19 93.0564 359.342 90.7012 365.183 99.1798C371.024 107.658 377.053 109.731 376.676 118.963C376.205 128.195 365.466 138.464 364.806 138.558C364.053 138.746 361.603 131.587 361.603 131.587Z" fill="#22272E"/>
<path d="M341.726 122.731C341.443 121.978 341.161 120.565 342.197 119.811C343.233 119.057 345.588 119.34 347.849 120.753C349.828 121.978 350.393 123.956 349.074 123.768C347.755 123.579 346.719 123.014 345.117 122.92C343.422 122.826 342.009 123.391 341.726 122.731Z" fill="#22272E"/>
<path d="M330.421 121.695C330.609 121.036 330.798 119.811 330.138 118.963C329.573 118.21 328.066 118.304 326.653 119.34C325.428 120.282 325.051 122.072 325.899 121.978C326.747 121.884 327.312 121.507 328.348 121.601C329.385 121.695 330.233 122.26 330.421 121.695Z" fill="#22272E"/>
<path d="M323.921 138.652C323.921 138.652 323.827 139.783 325.428 140.065C327.03 140.254 327.218 137.899 329.95 137.522C331.646 137.333 337.581 137.804 340.03 140.065C342.479 142.326 345.871 144.964 350.77 143.457C355.668 141.949 358.589 135.072 359.531 125.086C360.379 115.949 363.77 124.804 363.77 126.971C363.77 128.478 362.357 126.311 360.661 132.435C359.908 135.167 360.661 142.891 357.741 148.544C355.48 152.877 349.168 157.305 341.161 157.87C333.153 158.435 326.559 155.138 324.58 149.863C322.602 144.776 323.356 139.029 323.921 138.652Z" fill="#22272E"/>
<path d="M327.783 128.761C328.537 128.855 329.196 128.29 329.291 127.536L329.385 126.782C329.479 126.029 328.914 125.369 328.16 125.275C327.406 125.181 326.747 125.746 326.653 126.5L326.559 127.253C326.464 128.007 327.03 128.666 327.783 128.761Z" fill="#22272E"/>
<path d="M342.762 129.703C343.515 129.797 344.175 129.232 344.269 128.478L344.363 127.724C344.458 126.971 343.892 126.311 343.139 126.217C342.385 126.123 341.726 126.688 341.631 127.442L341.537 128.195C341.443 129.043 342.008 129.703 342.762 129.703Z" fill="#22272E"/>
<path d="M360.567 132.435C360.567 132.435 363.11 126.782 367.538 127.442C372.06 128.195 369.799 140.065 361.603 139.971" fill="#E9BAAA"/>
<path d="M367.255 131.681C366.973 131.398 366.69 131.116 366.502 131.021C366.219 130.927 366.313 131.116 366.125 131.21C366.125 131.304 365.937 132.058 365.842 132.717C365.748 133.377 365.56 134.13 365.183 134.79C364.994 135.167 364.806 135.543 364.429 135.826C364.052 136.109 363.581 136.203 363.205 136.014C363.581 135.826 363.676 135.543 363.77 135.261C363.864 134.978 363.864 134.695 363.958 134.413C364.052 133.753 364.052 133.094 364.241 132.34C364.335 131.964 364.429 131.587 364.523 131.21C364.618 131.021 364.712 130.833 364.806 130.645C364.9 130.55 364.9 130.456 365.089 130.362C365.183 130.268 365.371 130.174 365.466 130.079C365.654 129.985 365.937 129.891 366.313 129.891C366.69 129.985 366.879 130.174 367.067 130.362C367.35 130.833 367.35 131.304 367.255 131.681Z" fill="#22272E"/>
<path d="M334.378 143.928C334.378 143.928 336.921 145.058 339.465 144.587" stroke="#E9BAAA" stroke-width="1.8" stroke-miterlimit="10" stroke-linecap="round" stroke-linejoin="round"/>
<path d="M329.83 126.052C330.28 121.338 328.126 117.277 325.018 116.98C321.91 116.684 319.026 120.264 318.576 124.977C318.126 129.691 320.281 133.752 323.389 134.049C326.496 134.345 329.38 130.765 329.83 126.052Z" stroke="#22272E" stroke-width="1.8" stroke-miterlimit="10" stroke-linecap="round" stroke-linejoin="round"/>
<path d="M350.78 127.887C351.23 123.173 348.361 119.044 344.373 118.663C340.385 118.282 336.787 121.795 336.337 126.508C335.887 131.221 338.756 135.351 342.744 135.731C346.732 136.112 350.33 132.6 350.78 127.887Z" stroke="#22272E" stroke-width="1.8" stroke-miterlimit="10" stroke-linecap="round" stroke-linejoin="round"/>
<path d="M329.573 127.442C329.573 127.442 331.175 124.427 336.262 128.007" stroke="#22272E" stroke-width="1.8" stroke-miterlimit="10" stroke-linecap="round" stroke-linejoin="round"/>
<path d="M350.675 127.913L361.321 130.174" stroke="#22272E" stroke-width="1.8" stroke-miterlimit="10" stroke-linecap="round" stroke-linejoin="round"/>
<path d="M391.466 231.916L396.459 241.996C396.459 241.996 391.184 249.156 385.531 262.721C379.879 276.287 375.734 293.056 371.872 297.86C371.872 297.86 375.64 306.904 384.872 310.861C384.872 310.861 402.865 284.483 411.061 272.99C419.257 261.497 427.076 246.801 426.511 239.452C425.663 228.619 417.467 212.604 416.714 208.27C415.96 203.937 391.655 219.387 391.466 231.916Z" fill="#E9BAAA"/>
<path d="M416.619 208.27C415.959 204.031 391.654 219.387 391.466 231.916L392.219 233.329C400.792 226.829 410.401 222.401 420.67 219.292C418.691 214.394 416.901 210.154 416.619 208.27Z" fill="#E26E85"/>
<path d="M376.581 288.063C377.9 290.324 382.422 296.353 392.973 298.802C393.35 298.897 393.444 299.273 393.256 299.556L388.451 306.056C388.357 306.245 388.075 306.245 387.886 306.245C376.11 302.665 373.002 296.73 372.531 295.599C372.436 295.505 372.436 295.317 372.531 295.223L375.734 288.157C375.922 287.686 376.393 287.686 376.581 288.063Z" fill="#22272E"/>
<path d="M383.246 299.498C384.543 297.364 383.938 294.626 381.893 293.383C379.848 292.139 377.138 292.861 375.841 294.995C374.543 297.128 375.149 299.866 377.194 301.11C379.239 302.353 381.948 301.632 383.246 299.498Z" fill="white"/>
<path d="M394.198 169.363C396.459 168.986 398.72 169.834 400.133 171.624C402.3 174.356 405.88 179.632 410.307 188.676C417.75 203.843 422.931 213.829 422.931 213.829C422.931 213.829 397.119 227.771 391.466 231.916C391.466 231.916 381.009 214.3 377.618 206.951C374.321 199.98 375.263 172.849 394.198 169.363Z" fill="#659192"/>
<path d="M388.263 226.452C388.263 226.452 402.394 215.901 420.011 208.176" stroke="#22272E" stroke-width="1.8" stroke-miterlimit="10" stroke-linecap="round" stroke-linejoin="round"/>
<path d="M368.197 291.643C368.197 291.643 372.625 308.129 390.807 313.875" stroke="#7693B5" stroke-width="1.8" stroke-miterlimit="10" stroke-linecap="round" stroke-linejoin="round"/>
<path d="M396.459 241.996C396.459 241.996 398.908 238.793 404.184 237.568" stroke="#E26E85" stroke-width="1.8" stroke-miterlimit="10" stroke-linecap="round" stroke-linejoin="round"/>
<path d="M536.073 265.548L452.7 255.279C449.968 254.902 448.084 252.547 448.367 249.815L457.222 167.102C457.599 163.899 460.048 161.356 463.251 160.885L549.544 149.203C552.747 148.732 555.573 151.464 555.196 154.761L542.384 260.743C542.008 263.758 539.181 265.924 536.073 265.548Z" fill="#7693B5"/>
<path d="M533.247 265.265L449.874 254.902C447.142 254.526 445.258 252.17 445.541 249.438L454.396 166.726C454.773 163.523 457.222 160.979 460.425 160.508L546.718 148.826C549.921 148.355 552.747 151.087 552.37 154.385L539.558 260.366C539.181 263.381 536.355 265.642 533.247 265.265Z" fill="#22272E"/>
<path d="M530.138 188.393L464.853 191.69C463.723 191.784 462.781 190.748 462.969 189.712L464.57 175.11C464.665 174.262 465.324 173.602 466.172 173.508L532.022 167.008C533.152 166.914 534.189 167.856 534 169.08L531.834 186.98C531.834 187.639 531.08 188.299 530.138 188.393Z" fill="#659192"/>
<path d="M481.528 178.595L524.768 175.11" stroke="#22272E" stroke-width="1.8" stroke-miterlimit="10" stroke-linecap="round" stroke-linejoin="round"/>
<path d="M480.962 184.153L504.231 182.552" stroke="#22272E" stroke-width="1.8" stroke-miterlimit="10" stroke-linecap="round" stroke-linejoin="round"/>
<path d="M474.027 183.188C474.866 181.631 474.508 179.808 473.226 179.117C471.944 178.425 470.223 179.127 469.384 180.684C468.544 182.24 468.903 184.063 470.185 184.755C471.467 185.446 473.187 184.745 474.027 183.188Z" fill="#22272E"/>
<path d="M526.463 218.256L461.932 217.126C460.896 217.126 460.048 216.183 460.142 215.147L461.744 200.639C461.838 199.697 462.592 199.038 463.534 199.038L528.536 196.965C529.666 196.965 530.514 197.908 530.42 199.038L528.348 216.749C528.253 217.502 527.405 218.256 526.463 218.256Z" fill="#E9BAAA"/>
<path d="M478.606 205.162L521.376 204.596" stroke="#22272E" stroke-width="1.8" stroke-miterlimit="10" stroke-linecap="round" stroke-linejoin="round"/>
<path d="M477.947 210.625H501.028" stroke="#22272E" stroke-width="1.8" stroke-miterlimit="10" stroke-linecap="round" stroke-linejoin="round"/>
<path d="M471.213 209.188C471.982 207.596 471.581 205.809 470.316 205.198C469.051 204.587 467.402 205.383 466.633 206.976C465.863 208.568 466.265 210.355 467.529 210.966C468.794 211.577 470.443 210.781 471.213 209.188Z" fill="#22272E"/>
<path d="M522.884 247.837L459.106 242.373C458.07 242.279 457.317 241.337 457.411 240.394L459.012 225.981C459.107 225.039 459.954 224.285 460.896 224.379L525.145 226.735C526.181 226.735 527.029 227.677 526.935 228.807L524.862 246.329C524.768 247.177 523.826 247.837 522.884 247.837Z" fill="#EECA80"/>
<path d="M475.687 231.539L517.891 233.8" stroke="#22272E" stroke-width="1.8" stroke-miterlimit="10" stroke-linecap="round" stroke-linejoin="round"/>
<path d="M475.027 236.909L497.825 238.51" stroke="#22272E" stroke-width="1.8" stroke-miterlimit="10" stroke-linecap="round" stroke-linejoin="round"/>
<path d="M468.541 234.408C469.238 232.782 468.756 231.015 467.465 230.462C466.173 229.909 464.562 230.778 463.865 232.404C463.169 234.03 463.651 235.797 464.942 236.35C466.233 236.903 467.845 236.034 468.541 234.408Z" fill="#22272E"/>
</g>
</svg>
